<svg width="20" height="20" viewBox="0 0 20 20" fill="none" xmlns="http://www.w3.org/2000/svg">
<path d="M19.868 3.90476C19.7124 3.64286 19.4457 3.45238 19.1568 3.45238L5.11145 2.7619L4.62253 0.714286C4.51141 0.285714 4.17806 0 3.75581 0H0.888948C0.400027 0 0 0.428571 0 0.952381C0 1.47619 0.400027 1.90476 0.888948 1.90476H3.06687L5.51148 12.0952L4.91144 14.7619C4.84477 15.0476 4.91144 15.3571 5.06701 15.5714C5.2448 15.8095 5.48926 15.9286 5.75594 15.9286H16.6456C17.1345 15.9286 17.5345 15.5 17.5345 14.9762C17.5345 14.4524 17.1345 14.0238 16.6456 14.0238H6.91157L7.15603 12.9286L16.0455 12.4762C16.3789 12.4524 16.6678 12.2381 16.8011 11.9286L19.9124 4.78571C20.0458 4.52381 20.0236 4.19048 19.868 3.90476Z" fill="#F5F5F5"/>
<path d="M6.33371 20.0001C7.25425 20.0001 8.00049 19.2006 8.00049 18.2144C8.00049 17.2281 7.25425 16.4286 6.33371 16.4286C5.41317 16.4286 4.66693 17.2281 4.66693 18.2144C4.66693 19.2006 5.41317 20.0001 6.33371 20.0001Z" fill="#F5F5F5"/>
<path d="M16.3344 20.0001C17.255 20.0001 18.0012 19.2006 18.0012 18.2144C18.0012 17.2281 17.255 16.4286 16.3344 16.4286C15.4139 16.4286 14.6677 17.2281 14.6677 18.2144C14.6677 19.2006 15.4139 20.0001 16.3344 20.0001Z" fill="#F5F5F5"/>
</svg>
