<svg width="80" height="80" viewBox="0 0 80 80" fill="none" xmlns="http://www.w3.org/2000/svg">
<path d="M79.472 15.619C78.8497 14.5714 77.783 13.8095 76.6273 13.8095L20.4458 11.0476L18.4901 2.85714C18.0457 1.14286 16.7122 0 15.0232 0H3.55579C1.60011 0 0 1.71429 0 3.80952C0 5.90476 1.60011 7.61905 3.55579 7.61905H12.2675L22.0459 48.381L19.6458 59.0476C19.3791 60.1905 19.6458 61.4286 20.268 62.2857C20.9792 63.2381 21.957 63.7143 23.0238 63.7143H66.5822C68.5379 63.7143 70.138 62 70.138 59.9048C70.138 57.8095 68.5379 56.0952 66.5822 56.0952H27.6463L28.6241 51.7143L64.1821 49.9048C65.5155 49.8095 66.6711 48.9524 67.2045 47.7143L79.6498 19.1429C80.1832 18.0952 80.0943 16.7619 79.472 15.619Z" fill="#005281"/>
<path d="M25.3351 80.0003C29.0172 80.0003 32.0022 76.8023 32.0022 72.8575C32.0022 68.9126 29.0172 65.7146 25.3351 65.7146C21.6529 65.7146 18.668 68.9126 18.668 72.8575C18.668 76.8023 21.6529 80.0003 25.3351 80.0003Z" fill="#005281"/>
<path d="M65.338 80.0003C69.0202 80.0003 72.0051 76.8023 72.0051 72.8575C72.0051 68.9126 69.0202 65.7146 65.338 65.7146C61.6559 65.7146 58.6709 68.9126 58.6709 72.8575C58.6709 76.8023 61.6559 80.0003 65.338 80.0003Z" fill="#005281"/>
</svg>
