<svg width="24" height="24" viewBox="0 0 24 24" fill="none" xmlns="http://www.w3.org/2000/svg">
<path d="M22.0787 5.40084H1.85394C1.65169 5.40084 1.48315 5.23207 1.48315 5.02954V0.371308C1.48315 0.168776 1.65169 0 1.85394 0H22.0787C22.2809 0 22.4494 0.168776 22.4494 0.371308V5.06329C22.4494 5.26582 22.2809 5.40084 22.0787 5.40084Z" fill="#F5F5F5"/>
<path d="M23.9326 12.6582L22.5169 6.91982C22.4831 6.7848 22.3483 6.68353 22.2135 6.68353H1.75281C1.61798 6.68353 1.48315 6.7848 1.44944 6.91982L0 12.6582C0 12.692 0 12.7257 0 12.7257V15.3586C0 15.5274 0.134831 15.6962 0.337079 15.6962H1.17978C1.34831 15.6962 1.51685 15.8312 1.51685 16.0337V23.6624C1.51685 23.8312 1.65169 24 1.85393 24H3.8427C3.97753 24 4.11236 23.8987 4.11236 23.7299V16.0675C4.11236 15.9325 4.21348 15.7975 4.38202 15.7975H9.60674C9.74157 15.7975 9.8764 15.8987 9.8764 16.0675V23.6962C9.8764 23.8312 9.97753 23.9662 10.1461 23.9662H22.1461C22.3146 23.9662 22.4831 23.8312 22.4831 23.6287V16C22.4831 15.8312 22.618 15.6624 22.8202 15.6624H23.6629C23.8315 15.6624 24 15.5274 24 15.3249V12.7257C23.9326 12.7257 23.9326 12.692 23.9326 12.6582ZM19.5843 21.9409H12C11.8652 21.9409 11.7303 21.8397 11.7303 21.6709V16.0675C11.7303 15.9325 11.8315 15.7975 12 15.7975H19.618C19.7528 15.7975 19.8876 15.8987 19.8876 16.0675V21.6709C19.8539 21.8059 19.7528 21.9409 19.5843 21.9409Z" fill="#F5F5F5"/>
</svg>
