<svg width="100" height="78" viewBox="0 0 100 78" fill="none" xmlns="http://www.w3.org/2000/svg">
<path d="M84.39 29.75H75.5V3.75L71.74 0.25L68.12 3.63L64.5 0.25L60.87 3.63L57.25 0.25L53.62 3.63L50 0.25L46.38 3.63L42.75 0.25L39.13 3.63L35.51 0.25L31.88 3.63L28.26 0.25L24.5 3.75V29.75H15.61C6.99 29.75 0 36.74 0 45.36V77.75H100V45.36C100 36.74 93.01 29.75 84.39 29.75ZM35.92 26C36.7 25.22 37.97 25.22 38.75 26L43.67 30.92L44.84 29.75L61.25 13.34C62.03 12.56 63.3 12.56 64.08 13.34C64.86 14.12 64.86 15.38 64.08 16.17L43.67 36.58L36.84 29.75L35.92 28.83C35.14 28.05 35.14 26.78 35.92 26ZM77.82 50.57C77.1 51.3 76.1 51.75 75 51.75H25C22.8 51.75 21 49.95 21 47.75C21 46.65 21.45 45.65 22.18 44.93C22.79 44.31 23.6 43.9 24.5 43.78V48.75H75.5V43.78C77.47 44.03 79 45.72 79 47.75C79 48.85 78.55 49.85 77.82 50.57Z" fill="#00810D"/>
</svg>
