<svg width="13" height="16" viewBox="0 0 13 16" fill="none" xmlns="http://www.w3.org/2000/svg">
<path d="M8.5 0.5V2H12.5C12.6326 2 12.7598 2.05268 12.8536 2.14645C12.9473 2.24021 13 2.36739 13 2.5V3.5C13 3.63261 12.9473 3.75979 12.8536 3.85355C12.7598 3.94732 12.6326 4 12.5 4H0.5C0.367392 4 0.240215 3.94732 0.146447 3.85355C0.0526784 3.75979 0 3.63261 0 3.5V2.5C0 2.36739 0.0526784 2.24021 0.146447 2.14645C0.240215 2.05268 0.367392 2 0.5 2H4.5V0.5C4.5 0.367392 4.55268 0.240215 4.64645 0.146447C4.74022 0.0526784 4.86739 0 5 0H8C8.13261 0 8.25979 0.0526784 8.35355 0.146447C8.44732 0.240215 8.5 0.367392 8.5 0.5ZM2.5 16H10.5C10.8978 16 11.2794 15.842 11.5607 15.5607C11.842 15.2794 12 14.8978 12 14.5V5.5H1V14.5C1 14.8978 1.15804 15.2794 1.43934 15.5607C1.72064 15.842 2.10218 16 2.5 16Z" fill="#2B2B2B"/>
</svg>
