<svg width="45" height="40" viewBox="0 0 45 40" fill="none" xmlns="http://www.w3.org/2000/svg">
<path d="M43.2759 7.28291H35.2874V1.68067C35.2874 1.23493 35.1057 0.807445 34.7824 0.492257C34.459 0.17707 34.0205 0 33.5632 0H5.45977C4.01175 0 2.62304 0.560722 1.59913 1.55882C0.575224 2.55691 0 3.91061 0 5.32213V34.6779C0 36.0894 0.575224 37.4431 1.59913 38.4412C2.62304 39.4393 4.01175 40 5.45977 40H43.2759C43.7331 40 44.1717 39.8229 44.495 39.5077C44.8184 39.1926 45 38.7651 45 38.3193V8.96358C45 8.51784 44.8184 8.09036 44.495 7.77517C44.1717 7.45998 43.7331 7.28291 43.2759 7.28291ZM3.3908 5.32213C3.3908 4.8021 3.60273 4.30336 3.97996 3.93565C4.35719 3.56793 4.86882 3.36134 5.4023 3.36134H31.8391V7.28291H5.45977C5.19082 7.29041 4.92306 7.24523 4.67234 7.15005C4.42163 7.05487 4.19304 6.91163 4.00013 6.7288C3.80722 6.54597 3.65389 6.32728 3.54923 6.08566C3.44457 5.84404 3.39069 5.5844 3.3908 5.32213ZM33.9655 27.1709C33.1698 27.1709 32.392 26.9409 31.7305 26.51C31.0689 26.0791 30.5533 25.4666 30.2488 24.75C29.9443 24.0334 29.8646 23.245 30.0198 22.4842C30.1751 21.7235 30.5582 21.0248 31.1208 20.4763C31.6835 19.9279 32.4003 19.5544 33.1807 19.4031C33.9611 19.2518 34.7699 19.3294 35.5051 19.6262C36.2402 19.9231 36.8685 20.4257 37.3105 21.0706C37.7526 21.7155 37.9885 22.4737 37.9885 23.2493C37.9885 24.2894 37.5647 25.2868 36.8102 26.0223C36.0557 26.7577 35.0325 27.1709 33.9655 27.1709Z" fill="white"/>
</svg>
